<svg xmlns="http://www.w3.org/2000/svg" viewBox="0 0 196.55 284.72"><defs><style>.cls-1{fill:none;stroke:#fff;stroke-miterlimit:10;}</style></defs><g id="Layer_2" data-name="Layer 2"><g id="Layer_1-2" data-name="Layer 1"><path class="cls-1" d="M41.3,23.09a16.25,16.25,0,0,1-6.46,7.48C32.39,32,29.11,32.86,23.6,34.32c-2.37.63-4.81,1.21-4.76,1.7.07.82,6.78-.11,7.83,2.38.5,1.21-.54,2.71-1,3.41-1.78,2.57-3.84,2.19-9.53,5.45-1.66,1-3.44,2.08-3.44,2.08-.85.54-1.57,1-3,2-1.83,1.24-2.94,2-3.64,2.51l-.78.55"/><line class="cls-1" x1="18.33" y1="48.28" x2="6.33" y2="56.02"/><line class="cls-1" x1="15.86" y1="52.15" x2="6.5" y2="57.89"/><line class="cls-1" x1="19.35" y1="52.15" x2="6.41" y2="59.6"/><line class="cls-1" x1="19.6" y1="57.13" x2="6.24" y2="71.09"/><line class="cls-1" x1="19.43" y1="60.19" x2="3.01" y2="77.47"/><line class="cls-1" x1="19.52" y1="62.57" x2="3.01" y2="80.11"/><line class="cls-1" x1="20.03" y1="65.55" x2="6.58" y2="80.11"/><line class="cls-1" x1="14.11" y1="75.6" x2="0.45" y2="104.79"/><line class="cls-1" x1="15.26" y1="78.23" x2="0.96" y2="107.77"/><line class="cls-1" x1="15.09" y1="84.02" x2="2.15" y2="109.04"/><line class="cls-1" x1="20.37" y1="76.36" x2="14.58" y2="93.55"/><line class="cls-1" x1="23.94" y1="65.38" x2="18.84" y2="73.89"/><line class="cls-1" x1="26.5" y1="77.55" x2="26.24" y2="107.09"/><line class="cls-1" x1="25.13" y1="82.06" x2="24.54" y2="108.96"/><line class="cls-1" x1="23.43" y1="84.45" x2="21.9" y2="105.89"/><line class="cls-1" x1="20.79" y1="89.47" x2="19.09" y2="109.3"/><line class="cls-1" x1="18.07" y1="91.43" x2="7.28" y2="110.15"/><line class="cls-1" x1="13.3" y1="95.17" x2="3.35" y2="111.6"/><line class="cls-1" x1="15.6" y1="103.38" x2="9.47" y2="111.17"/><line class="cls-1" x1="15.26" y1="108.53" x2="8.62" y2="121.04"/><line class="cls-1" x1="17.47" y1="109.55" x2="7.69" y2="126.32"/><line class="cls-1" x1="21.22" y1="109.55" x2="6.75" y2="132.28"/><line class="cls-1" x1="8.25" y1="138.01" x2="21.84" y2="109.95"/><line class="cls-1" x1="23.94" y1="111" x2="9.81" y2="139.6"/><line class="cls-1" x1="25.64" y1="115.34" x2="11.18" y2="142.49"/><line class="cls-1" x1="15.05" y1="140.11" x2="19.94" y2="148.53"/><line class="cls-1" x1="16.88" y1="137.64" x2="20.88" y2="146.06"/><line class="cls-1" x1="19.94" y1="131" x2="21.56" y2="142.49"/><line class="cls-1" x1="22.67" y1="125.3" x2="22.67" y2="138.91"/><line class="cls-1" x1="26.37" y1="119.51" x2="25.73" y2="133.13"/><path class="cls-1" d="M21.05,149.64c-.86.91,1,3,3.32,8.93,1.25,3.25,1.27,4.14,2.81,7.66,1.17,2.71,1.3,2.52,2,4.34,1,2.47,1,3.47,2.3,9.45s1.95,7.52,2.55,8.68c1,2,2.78,4.66,3.06,4.51.09,0,0-.32,0-.42-.73-3.39-.77-6.89-1.36-10.3-.63-3.68-.78-4.6-1.19-6.3-.15-.63-.44-1.77-1.87-6.38-1.27-4.09-1.91-6.14-2.13-6.64-1.27-2.84-2.44-4.21-4.08-7.74-.63-1.35-.94-2-1.11-2.47-.64-1.74-.59-2.34-1.19-2.9C23.35,149.28,21.66,149,21.05,149.64Z"/><path class="cls-1" d="M37.47,194.91a62.29,62.29,0,0,0,.68,12.94,46.55,46.55,0,0,0,1.79,7.66,41.26,41.26,0,0,0,4.26,9A19.53,19.53,0,0,0,46.75,228a7.55,7.55,0,0,1,1.79,2,5.44,5.44,0,0,1,.59,2.56c.09,3.78,8.17,10.81,8.17,10.81,6.79,5.9,10.19,8.85,13.45,10.38,6.69,3.14,12.58,3.36,17.19,3.49.56,0,2.22.05,4.32-.05a62.21,62.21,0,0,0,20.87-5.06,75.3,75.3,0,0,0,21.11-13.28"/><path class="cls-1" d="M107.35,258.66a84.26,84.26,0,0,0,10.55-4.09,105.5,105.5,0,0,0,14-8.17c9-6,13.57-9,16-12.59,2.77-4.09,3.84-8,5.44-14a78.08,78.08,0,0,0,2.39-13.28"/><path class="cls-1" d="M151.6,239.6a66.36,66.36,0,0,1,4.43-6.81c3.55-4.82,5.67-6.34,7.49-8.85,3.14-4.36,3.18-8.62,3.74-16,1.42-18.7,2.93-15,3.41-28.6v-.09a168.07,168.07,0,0,0-1.37-28.16"/><path class="cls-1" d="M179.18,122.83c2.26-.46,5.18-.63,7.15,1,1.58,1.33,1.46,2.92,2.72,10.55.63,3.86,1.14,6.87,2,10.56,1.25,5.09,1.59,4.64,1.7,6.47.27,4.41-1.69,7.83-4.42,12.59a34.18,34.18,0,0,1-5.79,7.83,32.71,32.71,0,0,1-11.91,7.49"/><path class="cls-1" d="M73,257l10.9,27.57"/><path class="cls-1" d="M179.86,177.64c.06,4,.29,9.61,1,16.34.8,7.4,1.45,13.12,3.74,20.42,2.85,9.07,6.07,13.75,7.49,15.66a43.94,43.94,0,0,0,4.09,4.77"/><line class="cls-1" x1="129.47" y1="86.74" x2="98.15" y2="48.28"/><line class="cls-1" x1="124.71" y1="72.83" x2="102.24" y2="44.87"/><line class="cls-1" x1="151.6" y1="84.96" x2="113.81" y2="44.19"/><line class="cls-1" x1="143.77" y1="84.96" x2="105.64" y2="42.49"/><line class="cls-1" x1="190.41" y1="203.17" x2="183.6" y2="176.28"/><line class="cls-1" x1="126.75" y1="46.23" x2="148.88" y2="68.83"/><line class="cls-1" x1="168.72" y1="88.62" x2="160.69" y2="79.68"/><line class="cls-1" x1="164.71" y1="120.91" x2="168.37" y2="146.06"/><line class="cls-1" x1="164.71" y1="113.89" x2="172.28" y2="139.95"/><line class="cls-1" x1="185.18" y1="90.8" x2="188.84" y2="115.96"/><line class="cls-1" x1="163.26" y1="39.46" x2="130.84" y2="27.13"/><line class="cls-1" x1="137.81" y1="34.49" x2="175.52" y2="47"/><line class="cls-1" x1="147.05" y1="42.66" x2="182.92" y2="58.37"/><line class="cls-1" x1="153.3" y1="49.04" x2="188.03" y2="64.57"/><line class="cls-1" x1="158.67" y1="55.02" x2="189.81" y2="68.83"/><line class="cls-1" x1="164.71" y1="61.93" x2="189.05" y2="71.34"/><line class="cls-1" x1="168.5" y1="68.83" x2="192.82" y2="86.83"/><line class="cls-1" x1="172.45" y1="77.83" x2="192.82" y2="95.17"/><line class="cls-1" x1="182.64" y1="183.6" x2="189.3" y2="209.38"/><line class="cls-1" x1="180.88" y1="193.98" x2="185.97" y2="210.91"/><line class="cls-1" x1="188.03" y1="167" x2="192.82" y2="185.89"/><path class="cls-1" d="M192.82,159.6l2.1,11.57c-.06,1.54-.15,3.91-.25,6.81-.28,7.84-.3,9.58-.52,13.79-.39,7.72-.49,4.61-.76,10.21-.24,5-.16,7.24-1.79,9.45a9.66,9.66,0,0,1-4.85,3.31"/><line class="cls-1" x1="166.54" y1="97.55" x2="174.24" y2="126.32"/><line class="cls-1" x1="161.19" y1="86.5" x2="176.88" y2="120.91"/><line class="cls-1" x1="158.41" y1="71.34" x2="180.66" y2="117.94"/><line class="cls-1" x1="164.71" y1="77.83" x2="181.74" y2="116.7"/><line class="cls-1" x1="170.39" y1="81.98" x2="181.74" y2="105.72"/><line class="cls-1" x1="176.88" y1="88.11" x2="183.42" y2="96.53"/><path class="cls-1" d="M30.5,90.91a43,43,0,0,1,4.34-13.53C37,73.29,39.64,68.1,45.3,64.62A44.57,44.57,0,0,1,55,60.53c4.35-1.34,4.83-.87,6.89-2C66.3,56,65.58,53,69.81,50.83c.21-.11,5.13-2.57,8.17-.51,1.3.88,1,1.7,2.56,3.32s4.57,3.45,6.89,2.81c3-.84,2.82-5.25,4.6-6.13C94.72,49,102.32,55.59,122,85"/><path class="cls-1" d="M31.77,36.79a26.1,26.1,0,0,0,8.43-4.85A67.74,67.74,0,0,0,47.35,24a25.55,25.55,0,0,1,3.06-3.57c2-1.78,3.6-2.23,7.4-3.83,6.51-2.74,5.88-3.07,9.2-4.09A44.3,44.3,0,0,1,75.18,11c6.64-.84,6.74-.05,11.49-.77,7.08-1.07,8.62-3.1,11.48-1.78s2.16,4,5.62,6.12c1.69,1,2.24.63,10.21,1.54,6.78.77,5.09.92,9.2,1.27,3.3.29,4.73.22,6.63,1.28a15.14,15.14,0,0,1,4.09,3.57c1.18,1.52.92,1.83,1.53,2.3,2.35,1.81,6.11-2.81,12-3.06,2.62-.12,5.83,1.45,12.26,4.59,4.61,2.26,6.15,3.59,7.15,4.6,1.9,1.93,1.28,2.18,4.08,5.62,1.61,2,2.27,2.46,6.38,6.89,1.22,1.31,2.2,2.39,2.81,3.06"/><path class="cls-1" d="M60.88,48.53a32.58,32.58,0,0,0-18.13,1.53,31.77,31.77,0,0,0-13.28,9.71,40.56,40.56,0,0,0-4.85,8.68,62.42,62.42,0,0,0-3.57,10.21"/><path class="cls-1" d="M91.26,18.91a184.72,184.72,0,0,1,21.19,0c10.83.64,13.08,1.77,14,2.3,5.11,2.82,7.1,7.07,11.23,6.64,2.49-.26,2.7-1.9,5.87-2.3,2.44-.3,4.35.48,8.17,2.05a29.66,29.66,0,0,1,8.43,4.59c2.27,1.86,2.86,3,6.13,5.62,1.46,1.15,2.73,2,3.57,2.55"/><line class="cls-1" x1="96.28" y1="28.64" x2="133.99" y2="45.36"/><line class="cls-1" x1="126.24" y1="37" x2="151.6" y2="50.52"/><line class="cls-1" x1="75.67" y1="38.74" x2="55.77" y2="1.81"/><line class="cls-1" x1="68.03" y1="38.74" x2="50.67" y2="1.55"/><line class="cls-1" x1="60.88" y1="37" x2="44.03" y2="6.66"/><line class="cls-1" x1="74.15" y1="20.28" x2="60.88" y2="0.28"/><line class="cls-1" x1="34.58" y1="57.38" x2="59.6" y2="54.6"/><line class="cls-1" x1="33.63" y1="63.05" x2="52.12" y2="56.41"/><line class="cls-1" x1="69.47" y1="109.3" x2="72.11" y2="120.91"/><line class="cls-1" x1="69.81" y1="119.68" x2="67.09" y2="108.45"/><line class="cls-1" x1="67.6" y1="119.43" x2="63.6" y2="107.68"/><line class="cls-1" x1="59.55" y1="108.81" x2="66.59" y2="119.49"/><line class="cls-1" x1="64.71" y1="119.77" x2="59.6" y2="112.19"/><line class="cls-1" x1="62.15" y1="119.85" x2="57.73" y2="113.55"/><line class="cls-1" x1="58.84" y1="120.28" x2="51.77" y2="114.79"/><line class="cls-1" x1="60.79" y1="120.91" x2="54.92" y2="115.11"/><line class="cls-1" x1="55.77" y1="120.91" x2="50.07" y2="115.98"/><line class="cls-1" x1="52.92" y1="120.91" x2="47.35" y2="116.7"/><line class="cls-1" x1="50.67" y1="120.91" x2="46.07" y2="117.53"/><line class="cls-1" x1="48.37" y1="120.91" x2="43.35" y2="117.53"/><line class="cls-1" x1="46.6" y1="120.66" x2="42.82" y2="119.48"/><line class="cls-1" x1="44.71" y1="121.81" x2="41.81" y2="120.07"/><circle class="cls-1" cx="52.92" cy="156.53" r="12.98"/><circle class="cls-1" cx="53.13" cy="153.84" r="20.28"/><ellipse class="cls-1" cx="53.89" cy="152.34" rx="23.07" ry="22.1"/><path class="cls-1" d="M24.88,147.09c-.48-1-1.93-4.4-.38-6.64.57-.84,1.36-1.22,3.31-2,3.5-1.47,6-2.32,6.9-2.68,4.87-1.83,4.18-3.46,9.32-5.74a32.15,32.15,0,0,1,8.3-2.3,77.84,77.84,0,0,1,8.29-.64c5.33-.31,8-.46,8.3-.51,6-.93,6.24-2.73,13-4a38.47,38.47,0,0,1,7.53-.76c2.91,0,4,.38,6.77.13a31.2,31.2,0,0,0,5.74-1.15c4.64-1.25,5-2,8.17-2.81a29.4,29.4,0,0,1,10.6-.89c4.36.45,4.43,1.56,8.68,1.65,2.84.07,3.31-.41,7-.25,2.81.12,3.46.44,5.24.13a15.58,15.58,0,0,0,5.23-2.17c2.81-1.6,2.52-2,5-3.45,3.12-1.8,4.2-1.47,6.64-3.19a15.74,15.74,0,0,0,3.32-3.19"/><path class="cls-1" d="M27.94,140.45a56.29,56.29,0,0,0,8-3.83c4.18-2.42,4.93-3.59,8.56-5.24A27.06,27.06,0,0,1,52.71,129c3.33-.4,3.6.28,10.21.38a33.43,33.43,0,0,0,7.79-.38,49.91,49.91,0,0,0,7.15-2.43c4.62-1.78,4-1.8,5.36-2.17,4.21-1.11,5.46.36,11-.13a53,53,0,0,0,7.4-1.53c5.57-1.35,5.81-2.2,9.19-2.55,2.72-.28,3.42.11,6.77-.38,3-.46,3-.86,5-1,.86-.07,2.27-.25,8.55,1.54,3.88,1.1,5.52,2.16,7.92,1.4,1.67-.53,2.26-1.48,4-1.4a4.87,4.87,0,0,1,3.71,2,4.66,4.66,0,0,1-.64,5.74c-1,.82-1.94.25-3.07,1.28a4.53,4.53,0,0,0-1.27,2.68c-.22,1.31.14,2,.38,3.45a22.52,22.52,0,0,1,0,4.59,29.63,29.63,0,0,1-1,7.79c-.9,2.87-2.53,5.67-3.07,5.49s-.15-2.16.39-6c.47-3.4.67-3.55.76-5.11a20.87,20.87,0,0,0-.89-7.27,20.6,20.6,0,0,0-3.45-7.28,19.56,19.56,0,0,0-9.7-6.51c-.55-.18-9.72-3-17,1.4a18.28,18.28,0,0,0-4.47,4,17.34,17.34,0,0,0-2.55,4.85,29.06,29.06,0,0,0-1.4,6.64c-.85,6.25-.8,9.13-1.41,9.19-.38,0-.57-1.1-1.78-3.7a40.92,40.92,0,0,0-3.2-5.62c-1.67-2.54-2.5-3.81-3.7-4.46a7,7,0,0,0-5.74-.39,6,6,0,0,0-2.94,2.56c-.68,1.24-.47,2.08-.64,4.08-.23,2.73-.76,2.75-1.4,6.26-.52,2.82-.25,3.22-.64,6.25a45.14,45.14,0,0,1-1.53,7.15"/><path class="cls-1" d="M100.2,179.38c-1.84,3.09,2.77,9.68,7.27,13.15a21.89,21.89,0,0,0,11.24,4.34,18.54,18.54,0,0,0,5.36-.89,18.89,18.89,0,0,0,5.74-3.07c3.56-2.82,8.07-8.89,6.39-12.12-1.26-2.42-5.06-1.47-17.87-1.92C105.22,178.41,101.53,177.16,100.2,179.38Z"/><path class="cls-1" d="M102.11,130.74a17.76,17.76,0,0,1,4.85-5.23,18.51,18.51,0,0,1,4.85-2.42,19.77,19.77,0,0,1,4.22-.9,21.2,21.2,0,0,1,5.1.13,25.76,25.76,0,0,1,4.73,1c2.19.7,3.29,1,4.34,1.92s1,1.38,2.93,3.44c1.31,1.38,1.38,1.19,2.05,2a15.16,15.16,0,0,1,2,4.09c.32.8.73,1.93,1.15,3.32"/><path class="cls-1" d="M101.09,134.57a13.92,13.92,0,0,1,4.34-5.1,18.85,18.85,0,0,1,4.47-2.17,22,22,0,0,1,4.47-1.28,21.22,21.22,0,0,1,4.72-.25,20.87,20.87,0,0,1,5.24.76,19.18,19.18,0,0,1,11.87,10.09,18.77,18.77,0,0,1,1.15,3.19"/><path class="cls-1" d="M105.3,128a14.25,14.25,0,0,1,2.43-1.92,14.57,14.57,0,0,1,3.11-1.44,19.35,19.35,0,0,1,3.87-.94,20.3,20.3,0,0,1,4.89-.08,23.41,23.41,0,0,1,3.75.63,22,22,0,0,1,3.27,1.2,18.58,18.58,0,0,1,3.19,1.78,20.39,20.39,0,0,1,2.52,2.09,16.15,16.15,0,0,1,2.12,2.42,17.18,17.18,0,0,1,1.28,2.22,26.53,26.53,0,0,1,1.32,2.93c.29.78.5,1.45.64,2"/><path class="cls-1" d="M100.84,137a22.15,22.15,0,0,1,3.91-4.42,15,15,0,0,1,4.09-2.73,14.27,14.27,0,0,1,4-1,31.4,31.4,0,0,1,5.41,0,37.93,37.93,0,0,1,4.47.39,21,21,0,0,1,4.72,1.44,13.7,13.7,0,0,1,2.85,1.62,16.47,16.47,0,0,1,2.55,2.55c.73.82,1.19,1.43,2.09,2.6s1.37,1.87,1.7,2.38.59,1,.77,1.28"/><path class="cls-1" d="M100.28,139.89a34.63,34.63,0,0,1,4.77-5.44,17.27,17.27,0,0,1,3.74-2.81,14.65,14.65,0,0,1,4.6-1.45,18.87,18.87,0,0,1,6.59.21,24.22,24.22,0,0,1,6.9,2.26,24.66,24.66,0,0,1,2.72,1.66,18,18,0,0,1,3.79,3.36,17.52,17.52,0,0,1,2.13,3.28,14.5,14.5,0,0,1,1.06,2.51A13.25,13.25,0,0,1,137,145"/><path class="cls-1" d="M98.79,177.77a84.11,84.11,0,0,1,12.43-.94c2.44,0,2,.11,8.47.26,3.16.07,6.33.55,9.49.34,1.93-.14,4.27-.43,6.63.89a8,8,0,0,1,1.62,1.19"/><path class="cls-1" d="M98.2,176.85c2.53-.33,5.83-.69,9.7-.89,1.8-.1,2.53-.1,7.57-.17,0,0,13.67-.21,18.94,1a14.9,14.9,0,0,1,3,1.1c.3.16.54.3.68.39"/><path class="cls-1" d="M99.46,165c2.53-.34,5.83-.69,9.7-.9,1.81-.09,2.53-.09,7.58-.17,0,0,13.66-.2,18.94,1a14.59,14.59,0,0,1,3,1.11l.68.38"/><path class="cls-1" d="M98.16,172c2.53-.34,5.82-.69,9.7-.9,1.8-.09,2.53-.09,7.57-.17,0,0,13.67-.2,18.94,1a14.24,14.24,0,0,1,3,1.1l.68.38"/><path class="cls-1" d="M97.79,173.6c2.53-.33,5.83-.69,9.71-.89,1.8-.1,2.52-.1,7.57-.17,0,0,13.67-.21,18.94,1a14.59,14.59,0,0,1,3,1.11c.3.15.53.29.68.38"/><path class="cls-1" d="M98.21,175.12c2.53-.33,5.83-.69,9.71-.89,1.8-.1,2.53-.1,7.57-.17,0,0,13.67-.21,18.94,1a14.59,14.59,0,0,1,3,1.11c.3.15.53.29.68.38"/><ellipse class="cls-1" cx="119.26" cy="192.79" rx="8.98" ry="3.07"/><path class="cls-1" d="M98.12,167c2.53-.14,5.83-.29,9.7-.38,1.81,0,2.53,0,7.58-.07,0,0,13.66-.09,18.93.43a28.72,28.72,0,0,1,3,.47c.3.06.53.12.68.16"/><path class="cls-1" d="M98.49,168.79c2.53-.33,5.82-.69,9.7-.89,1.8-.1,2.53-.09,7.57-.17,0,0,13.67-.21,18.94,1a14.59,14.59,0,0,1,3,1.11,7.67,7.67,0,0,1,.68.38"/><path class="cls-1" d="M98.49,170.34c2.53-.34,5.82-.69,9.7-.9,1.8-.09,2.53-.09,7.57-.17,0,0,13.67-.2,18.94,1a14.59,14.59,0,0,1,3,1.11l.68.38"/><path class="cls-1" d="M99.5,163.68a57.72,57.72,0,0,1,7.21-1.85,63.39,63.39,0,0,1,7.15-.89c5-.41,8.63-.71,13.4-.07a34.66,34.66,0,0,1,7.09,1.66,31.33,31.33,0,0,1,4.27,1.92"/><path class="cls-1" d="M99.37,161.89A49.74,49.74,0,0,1,107.6,159a43.25,43.25,0,0,1,7.41-1.34,45.63,45.63,0,0,1,9.12.19,43.5,43.5,0,0,1,7.66,1.34,21.26,21.26,0,0,1,4.73,1.85,20.09,20.09,0,0,1,2,1.28"/><path class="cls-1" d="M99.69,162.6c4.58-1.23,8.49-2.15,11.55-2.81a32.7,32.7,0,0,1,7.28-1,40.22,40.22,0,0,1,4.72.32,51.4,51.4,0,0,1,7.91,1.28,41.12,41.12,0,0,1,6.2,2.1"/><path class="cls-1" d="M99.94,159.72a34.59,34.59,0,0,1,10.15-3.25c1.33-.21,4-.27,9.26-.38,5-.12,6.23,0,7.72.31s2,.61,5,1.28a27.53,27.53,0,0,1,3.45.89,16.93,16.93,0,0,1,3.51,1.79"/><path class="cls-1" d="M99.88,157.68a34.69,34.69,0,0,1,9.83-2.74,63.76,63.76,0,0,1,8.23-.26,60.86,60.86,0,0,1,6.19.26c.8.07,2.75.28,5.24.76a55.5,55.5,0,0,1,5.49,1.34c1.29.39,2.37.78,3.19,1.09"/><path class="cls-1" d="M99.75,156.09a32.68,32.68,0,0,1,7.28-2.94,37.63,37.63,0,0,1,9.64-1.15c4.71-.15,9.2-.29,14.68,1.34a34.6,34.6,0,0,1,6.38,2.62"/><path class="cls-1" d="M102,155.83a38.18,38.18,0,0,1,7.66-2.23,46.5,46.5,0,0,1,11-.51,67.2,67.2,0,0,1,8.17.82,22.17,22.17,0,0,1,7.08,2,19.24,19.24,0,0,1,2.17,1.28"/><path class="cls-1" d="M99.62,154a43.76,43.76,0,0,1,8.88-3.13,46.46,46.46,0,0,1,7.91-1.08,52.2,52.2,0,0,1,10.47.64,27.08,27.08,0,0,1,6,1.27,22.49,22.49,0,0,1,4.72,2.37"/><path class="cls-1" d="M100.07,151.62a31.13,31.13,0,0,1,8.74-4.34,33.43,33.43,0,0,1,8.56-1.41,46.51,46.51,0,0,1,7.66.58c5.21.63,6.86,1.29,8,1.85a15.68,15.68,0,0,1,3.44,2.36"/><path class="cls-1" d="M100.07,149.45a20.29,20.29,0,0,1,6.77-4.73,24.23,24.23,0,0,1,7.78-1.66,37.58,37.58,0,0,1,10.22.32,27.06,27.06,0,0,1,6.57,1.92,25.43,25.43,0,0,1,5,2.93"/><path class="cls-1" d="M100.52,146.38a27.06,27.06,0,0,1,9-5.68,23.05,23.05,0,0,1,9-1.72c.61,0,.22,0,8.68,1.79,2.57.53,4.27.87,6.06,2.23a10.44,10.44,0,0,1,2.43,2.62"/><path class="cls-1" d="M100.45,142.74a21.45,21.45,0,0,1,7.73-5.48,23.51,23.51,0,0,1,10.15-1.54c3.23.06,7.74.13,12.25,2.94a18.9,18.9,0,0,1,4,3.38"/><path class="cls-1" d="M104.15,137.06a22.39,22.39,0,0,1,8.24-3.83,24.65,24.65,0,0,1,9.32-.12c5.32.64,7.46,2.12,8,2.55a12.22,12.22,0,0,1,2.17,2"/><path class="cls-1" d="M67.69,212.53c.66,2.5,3.88,3.57,4.93,3.92,2.27.75,3.81.55,10.9-.51,9.11-1.37,9.82-1.51,11.06-1.88,4.16-1.21,4.3-1.89,8-2.72,2.86-.64,3.14-.31,8.85-1,7.12-.89,8.59-1.64,9.53-2.89a5.7,5.7,0,0,0,1-4.26c-.43-2-2.27-3.13-6-5.28-3.39-2-5.08-3-7.32-3.4s-4.4-.11-8.85.51c-5.48.77-5.4,1.27-8,1.19-2.26-.06-2.59-.45-7.32-.85-3.59-.31-4.52-.18-5.45.17-1.67.63-2.67,1.7-4.25,3.4a41.32,41.32,0,0,0-3.41,4.6,24.53,24.53,0,0,0-2.89,4.77C67.82,210.05,67.34,211.24,67.69,212.53Z"/><path class="cls-1" d="M103.6,190.23a8.36,8.36,0,0,0-5.27,0c-1.58.59-1.87,1.38-3.75,2.05a12.66,12.66,0,0,1-4.43.51c-2.82,0-3.78-.53-6.29-.85s-5.08-.65-7.66.17a12.86,12.86,0,0,0-6.64,5.44c-2.83,4.43-.63,6.6-3.58,12.6a9.3,9.3,0,0,0-1.19,4.08A8.74,8.74,0,0,0,66.15,219a8.14,8.14,0,0,0,6,3.74c5.88.85,14-1,14-1,8.24-1.9,8.28-2,12.26-2.89,8.63-1.93,9.35-1.64,12.93-3.06a41.12,41.12,0,0,0,9.87-6.47,7,7,0,0,0,2.39-3.24,7.46,7.46,0,0,0-.17-4.42,10.58,10.58,0,0,0-2.39-4.26"/><path class="cls-1" d="M71.71,203.26c.27.79.64,1.51,1.1,1.53s.66-.53.94-.43,0,1.26.6,1.7c.26.2.63.19,1.36.17.42,0,.44,0,.85-.08,1.11-.08,1.4.23,2.28,0a1.52,1.52,0,0,0,.83-.38c.24-.26.26-.56.38-.55s.11.56.47.85.59-.06,1.61.06c.44.05.69.14.94,0s.18-.26.38-.43a1.41,1.41,0,0,1,1-.23c.56,0,.75.27,1.23.42a3,3,0,0,0,1.64,0c.55-.1,2.06-.14,5.07-.23,3.28-.1,3.43.18,4.89-.17a19.1,19.1,0,0,1,2.4-.6c1.6-.22,1.72.12,3.15,0s1.47-.54,4-1c.93-.18,1.4-.27,1.83-.32a9,9,0,0,0,2.23-.36,2.66,2.66,0,0,0,.88-.41c.62-.47.55-1,1-1.14.23-.11.45,0,1.63.49,1.59.7,1.69.79,2,.76.64,0,.68-.43,1.68-.66a2.74,2.74,0,0,1,1.26-.06,1.84,1.84,0,0,1,1.45,1.1,1.32,1.32,0,0,1-.26,1.28c-.44.41-1.08.08-2.4,0-1.72-.16-1.58.3-3.3.15-1.36-.12-2.12-.48-2.75,0-.33.26-.31.5-.68.68-.54.25-1-.09-1.83-.23a7.1,7.1,0,0,0-2.42.21c-.45.08-.27.07-2.07.47-1.06.23-1.35.29-1.65.34-.61.09-1.07.14-1.64.19-1,.08-1.68.12-1.85.13-3.68.16-4.51-.06-6.56.27-1.24.2-1.35.35-2.53.47a21.42,21.42,0,0,1-3.17,0c-2.12-.09-2.25-.31-3.08-.08a14.45,14.45,0,0,1-2,.64,6.94,6.94,0,0,1-1.68,0c-3.15-.18-3.64.41-5.37-.11a5.29,5.29,0,0,1-1.85-.79,4.06,4.06,0,0,0-1.15-.74,2.58,2.58,0,0,0-1.19-.11"/><path class="cls-1" d="M73.26,165.74c0,.46-.08,1.09-.11,1.86a6.4,6.4,0,0,0,.11,2.14,5.07,5.07,0,0,0,1.21,1.75,7,7,0,0,0,1.2,1.11,4.18,4.18,0,0,0,.68.44,2.74,2.74,0,0,0,.76.26c.55.09.76-.14,1.6-.3a5,5,0,0,1,1.49-.15,3.67,3.67,0,0,1,1.44.64c1.18.68,1.76,1,2.34,1.42a8.61,8.61,0,0,1,1.77,1.43c.47.56.42.87.89,1.38a4,4,0,0,0,1.47,1,3.88,3.88,0,0,0,4.3-1.68c.6-1.09-.09-1.68.57-3.06a6,6,0,0,1,2-2.11c.56-.43,3-2.3,3.51-1.83s-.82,2.86-2.26,4.55a12.19,12.19,0,0,1-5.72,4c-5,1.56-9.48-1.1-11-2a16.72,16.72,0,0,1-5.69-5.73"/><circle class="cls-1" cx="54" cy="158.54" r="3.86"/><line class="cls-1" x1="43.58" y1="122.41" x2="41.83" y2="121.68"/><line class="cls-1" x1="42.7" y1="123.24" x2="40.96" y2="122.93"/><line class="cls-1" x1="41.6" y1="124.46" x2="40.01" y2="123.98"/><line class="cls-1" x1="40.01" y1="125.3" x2="38.41" y2="125"/><line class="cls-1" x1="102.18" y1="111.95" x2="97.61" y2="104.96"/><line class="cls-1" x1="103.84" y1="111.05" x2="99.34" y2="101.64"/><line class="cls-1" x1="104.86" y1="110.03" x2="101.83" y2="99.02"/><line class="cls-1" x1="106.2" y1="109.71" x2="104" y2="95.7"/><line class="cls-1" x1="107.44" y1="109.01" x2="108.5" y2="94.65"/><line class="cls-1" x1="108.21" y1="109.59" x2="112.29" y2="97.14"/><line class="cls-1" x1="109.42" y1="109.68" x2="116.7" y2="97.52"/><line class="cls-1" x1="112.17" y1="108.98" x2="120.11" y2="96.88"/><line class="cls-1" x1="115.61" y1="107.38" x2="123.14" y2="97.52"/><line class="cls-1" x1="118.84" y1="105.98" x2="125.35" y2="97.33"/><line class="cls-1" x1="121.45" y1="104.86" x2="128.38" y2="96.6"/><line class="cls-1" x1="124.58" y1="103.6" x2="130.55" y2="96.79"/><line class="cls-1" x1="127.56" y1="102.71" x2="133.07" y2="97.9"/><line class="cls-1" x1="129.59" y1="102.93" x2="135.53" y2="98.7"/><line class="cls-1" x1="132.05" y1="103.14" x2="137.38" y2="99.79"/><line class="cls-1" x1="134.51" y1="103.6" x2="138.27" y2="101.26"/><line class="cls-1" x1="135.85" y1="104.64" x2="139.84" y2="102.71"/><line class="cls-1" x1="138.78" y1="105.09" x2="141.27" y2="104.61"/><line class="cls-1" x1="140.35" y1="106.2" x2="143.35" y2="105.6"/><line class="cls-1" x1="145.1" y1="108.69" x2="146.54" y2="108.72"/><line class="cls-1" x1="142.17" y1="107.03" x2="144.5" y2="107.45"/><path class="cls-1" d="M175.52,143.77a67.67,67.67,0,0,1,2.55-6.39c1.69-3.66,1.67-2.72,3.06-5.87.71-1.59,1.05-2.58,1.54-2.55s1.27,1.73,1.27,3.32c0,2.18-1.2,2.65-1,4.59a7.9,7.9,0,0,0,1.28,3.07,34.68,34.68,0,0,0,2.3,3.32,13.83,13.83,0,0,1,2.29,4.59,10.48,10.48,0,0,1-.51,5.87c-.71,2.21-1.19,1.75-3.32,5.88-1.09,2.11-1.52,3.31-2.29,3.31s-1-1.63-2.56-2.29a4.15,4.15,0,0,0-3.83.51c-1.27.91-1.09,2.05-2,2.3a2.63,2.63,0,0,1-2.81-2.05c-.05-.92,1-1.33,3.32-3.57a13.86,13.86,0,0,0,2.81-3.07c.63-1.19,1-3.31-.77-7.14"/><path class="cls-1" d="M39.94,41.64c-9.55,0-13.92,2.54-15.83,5.62-1.67,2.7-.84,4.89-2.47,7.76-2.54,4.49-8.6,6.2-15.06,6.7"/><path class="cls-1" d="M32,48.53c6.72-4.57,12.06-5.34,15.83-5.1,4.17.26,7.29,1.82,14.29,1.53,5-.21,6.71-1.12,7.41-1.53,3.11-1.83,3.46-4.21,6.11-4.69.92-.16,1.9-.06,5.89,1.88A85.67,85.67,0,0,1,89.47,45"/><path class="cls-1" d="M186.75,73.3c6.79,6.4,7.58,9.8,6.89,11.74-.32.91-1.17,2.06-1,3.83s1.24,2.55,2,4.09c1.74,3.33.49,7.31-.26,9.7-1.55,4.93-3.87,5.14-3.57,7.91.31,3,3.09,3.3,3.83,7.15.24,1.26,0,1.32-.52,5.88a62.71,62.71,0,0,0-.51,8.17c0,1.49.13,1.57,1,8.17.58,4.3.87,6.49,1,8.17a80.1,80.1,0,0,1,.25,8.93"/><line class="cls-1" x1="76.07" y1="199.71" x2="77.22" y2="205.6"/><line class="cls-1" x1="79.33" y1="197.45" x2="80.06" y2="205.11"/><line class="cls-1" x1="84.91" y1="198.53" x2="84.85" y2="204.91"/><line class="cls-1" x1="90.62" y1="198.98" x2="90.43" y2="205.43"/><line class="cls-1" x1="98" y1="198.6" x2="97.74" y2="205.2"/><line class="cls-1" x1="106.29" y1="198.91" x2="106.23" y2="203.51"/><line class="cls-1" x1="112.52" y1="198.82" x2="112.61" y2="201.21"/><line class="cls-1" x1="117.91" y1="200.89" x2="118.01" y2="201.55"/><line class="cls-1" x1="117.24" y1="205.07" x2="117.59" y2="206.39"/><line class="cls-1" x1="112.07" y1="205.2" x2="112.56" y2="206.96"/><line class="cls-1" x1="105.85" y1="205.73" x2="106.48" y2="208.52"/><line class="cls-1" x1="101.67" y1="206.73" x2="101.7" y2="209.48"/><line class="cls-1" x1="96.43" y1="207.13" x2="96.72" y2="210.28"/><line class="cls-1" x1="91.48" y1="207.4" x2="91.84" y2="210.53"/><line class="cls-1" x1="87.3" y1="207.34" x2="87.37" y2="212"/><line class="cls-1" x1="82.87" y1="208.23" x2="83.6" y2="213.85"/><line class="cls-1" x1="79.58" y1="208.11" x2="79.69" y2="213.91"/><line class="cls-1" x1="75.67" y1="208.27" x2="75.88" y2="213.82"/><line class="cls-1" x1="72.62" y1="206.57" x2="72.08" y2="211.01"/></g></g></svg>